<svg width="529" height="240" viewBox="0 0 529 240" fill="none" xmlns="http://www.w3.org/2000/svg">
<line y1="-1" x2="148.66" y2="-1" transform="matrix(-0.999994 0.00345949 -0.00573996 -0.999983 487.176 6.30289)" stroke="#7980BA" stroke-width="2"/>
<line y1="-1" x2="186.934" y2="-1" transform="matrix(-0.764125 0.645068 -0.473737 -0.880666 339.295 6.81458)" stroke="#7980BA" stroke-width="2"/>
<line x1="170.967" y1="184.115" x2="217.967" y2="231.115" stroke="#7980BA" stroke-width="2"/>
<line x1="201" y1="128" x2="1.2068e-05" y2="128" stroke="#7980BA" stroke-width="2"/>
<line x1="172" y1="185" x2="-5.00679e-06" y2="185" stroke="#7980BA" stroke-width="2"/>
<path d="M494.738 14.6343C491.174 14.6467 488.205 11.6484 488.183 7.85893C488.161 4.06948 491.095 1.05077 494.66 1.03844C498.224 1.02611 501.193 4.0244 501.215 7.81385C501.236 11.6033 498.302 14.622 494.738 14.6343Z" stroke="#7980BA" stroke-width="2"/>
<path d="M221.958 238.977C218.794 238.988 216.278 236.533 216.261 233.572C216.244 230.61 218.731 228.138 221.896 228.127C225.061 228.116 227.577 230.571 227.594 233.532C227.611 236.494 225.123 238.966 221.958 238.977Z" stroke="#7980BA" stroke-width="2"/>
<line x1="144.189" y1="102.735" x2="186.189" y2="60.7354" stroke="#7980BA" stroke-width="2"/>
<line x1="145" y1="102" y2="102" stroke="#7980BA" stroke-width="2"/>
<path d="M190.646 55.7383C188.252 55.7297 186.314 57.6471 186.301 60.005C186.287 62.3629 188.205 64.294 190.599 64.3025C192.993 64.3111 194.931 62.3937 194.944 60.0358C194.958 57.6779 193.04 55.7468 190.646 55.7383Z" stroke="#7980BA" stroke-width="2"/>
<line y1="-2.5" x2="148.66" y2="-2.5" transform="matrix(-0.999994 0.00345949 -0.00573996 -0.999983 515.469 35.8379)" stroke="#7980BA" stroke-width="5"/>
<line y1="-2.5" x2="186.934" y2="-2.5" transform="matrix(-0.764125 0.645068 -0.473737 -0.880666 367.591 36.3494)" stroke="#7980BA" stroke-width="5"/>
<line x1="229" y1="159.5" x2="-1.82788e-06" y2="159.5" stroke="#7980BA" stroke-width="5"/>
<path d="M520.753 43.6755C517.684 43.6855 514.994 40.9809 514.972 37.3963C514.95 33.8117 517.607 31.0896 520.676 31.0796C523.745 31.0696 526.435 33.7743 526.457 37.3589C526.479 40.9434 523.822 43.6655 520.753 43.6755Z" stroke="#7980BA" stroke-width="3"/>
</svg>
