<svg width="433" height="212" viewBox="0 0 433 212" fill="none" xmlns="http://www.w3.org/2000/svg">
<line y1="-2.5" x2="128.947" y2="-2.5" transform="matrix(0.999994 -0.00353987 0.00560963 0.999984 12.8693 180.203)" stroke="#7980BA" stroke-width="5"/>
<line y1="-2.5" x2="163.723" y2="-2.5" transform="matrix(0.756759 -0.653694 0.46533 0.885137 141.137 179.749)" stroke="#7980BA" stroke-width="5"/>
<line x1="261" y1="70.5" x2="433" y2="70.5" stroke="#7980BA" stroke-width="5"/>
<line y1="-1" x2="128.947" y2="-1" transform="matrix(0.999994 -0.00353987 0.00560963 0.999984 37.4105 206.417)" stroke="#7980BA" stroke-width="2"/>
<line y1="-1" x2="163.723" y2="-1" transform="matrix(0.756759 -0.653694 0.46533 0.885137 165.681 205.963)" stroke="#7980BA" stroke-width="2"/>
<line y1="-1" x2="67.3675" y2="-1" transform="matrix(-0.805182 -0.593027 0.759393 -0.650632 323.776 48.2094)" stroke="#7980BA" stroke-width="2"/>
<line x1="286" y1="98" x2="433" y2="98" stroke="#7980BA" stroke-width="2"/>
<line x1="322" y1="48" x2="433" y2="48" stroke="#7980BA" stroke-width="2"/>
<path d="M7.62568 173.417C10.6394 173.406 13.0866 175.83 13.1035 178.819C13.1205 181.808 10.7008 184.248 7.68711 184.259C4.67342 184.27 2.22618 181.846 2.20925 178.857C2.19232 175.868 4.61199 173.427 7.62568 173.417Z" stroke="#7980BA" stroke-width="3"/>
<path d="M30.8634 199.13C33.856 199.118 36.3949 201.701 36.4106 205.028C36.4263 208.356 33.912 210.96 30.9193 210.973C27.9266 210.985 25.3878 208.402 25.3721 205.075C25.3564 201.747 27.8707 199.143 30.8634 199.13Z" stroke="#7980BA" stroke-width="2"/>
<path d="M264.458 1.02026C267.113 1.01086 269.253 3.1218 269.267 5.70581C269.282 8.28983 267.166 10.4158 264.511 10.4252C261.857 10.4346 259.717 8.32369 259.702 5.73967C259.688 3.15566 261.804 1.02966 264.458 1.02026Z" stroke="#7980BA" stroke-width="2"/>
<line y1="-1" x2="54.3493" y2="-1" transform="matrix(-0.796741 0.604321 0.749841 0.661619 340.302 121)" stroke="#7980BA" stroke-width="2"/>
<line x1="338" y1="121" x2="433" y2="121" stroke="#7980BA" stroke-width="2"/>
<path d="M294.622 160.393C296.604 160.4 298.247 158.77 298.258 156.718C298.269 154.667 296.645 153.024 294.662 153.017C292.679 153.01 291.037 154.64 291.026 156.692C291.014 158.743 292.639 160.386 294.622 160.393Z" stroke="#7980BA" stroke-width="2"/>
</svg>
